<svg width="54" height="54" viewBox="0 0 54 54" fill="none" xmlns="http://www.w3.org/2000/svg">
<path d="M21.6745 19.3321C23.0249 18.641 24.5864 18.4848 26.0469 18.8949C29.7612 19.5508 32.6055 23.0487 32.6055 26.9838V33.3238C32.6055 35.7286 30.6357 37.6962 28.2331 37.6962H23.8607L19.2697 46.8782C19.028 47.3821 18.6804 47.828 18.2505 48.1852C17.8206 48.5424 17.3186 48.8025 16.7789 48.9479C16.2392 49.0932 15.6744 49.1202 15.1233 49.0271C14.5722 48.934 14.0477 48.723 13.5856 48.4085C11.8367 47.3154 11.3994 45.1292 12.2739 43.3803L15.116 37.6962" stroke="white" stroke-width="1.5" stroke-miterlimit="10" stroke-linecap="round" stroke-linejoin="round"/>
<path d="M7.46429 37.6962L4.62224 43.3803C3.74776 45.1293 4.185 47.3155 5.93395 48.4086C6.396 48.7231 6.92053 48.9341 7.47165 49.0272C8.02278 49.1203 8.58751 49.0932 9.12722 48.9479C9.66693 48.8026 10.1689 48.5425 10.5988 48.1852C11.0287 47.828 11.3764 47.3822 11.6181 46.8782L11.9973 46.2804M46.992 49.0823H29.5025M36.061 18.4756H40.4334C44.15 18.4756 46.992 21.3176 46.992 25.0341V31.5927M46.992 31.5927H44.8058C42.401 31.5927 40.4334 33.5603 40.4334 35.9651V49.0823H51.3644V35.9651C51.3644 33.5603 49.3968 31.5927 46.992 31.5927ZM18.3953 30.919H5.93395C5.59793 30.9142 5.27137 30.807 4.99791 30.6117C4.72445 30.4164 4.51712 30.1422 4.40362 29.8259L2.21742 21.9556C1.99881 20.8625 2.65466 19.9881 3.74776 19.9881H14.2415C14.8973 19.9881 15.5532 20.4253 15.7718 21.0811L18.3953 30.919ZM18.3953 30.919H24.9538M23.8607 15.3881C24.5785 15.3881 25.2892 15.2468 25.9523 14.9721C26.6154 14.6974 27.2179 14.2948 27.7254 13.7873C28.2329 13.2798 28.6355 12.6773 28.9102 12.0142C29.1849 11.3511 29.3262 10.6404 29.3262 9.92264C29.3262 9.2049 29.1849 8.49419 28.9102 7.83109C28.6355 7.16798 28.2329 6.56547 27.7254 6.05796C27.2179 5.55044 26.6154 5.14785 25.9523 4.87319C25.2892 4.59852 24.5785 4.45715 23.8607 4.45715C22.4112 4.45715 21.021 5.03298 19.9961 6.05796C18.9711 7.08293 18.3953 8.4731 18.3953 9.92264C18.3953 11.3722 18.9711 12.7623 19.9961 13.7873C21.021 14.8123 22.4112 15.3881 23.8607 15.3881Z" stroke="white" stroke-width="1.5" stroke-miterlimit="10" stroke-linecap="round" stroke-linejoin="round"/>
</svg>
