<svg width="53" height="55" viewBox="0 0 53 55" fill="none" xmlns="http://www.w3.org/2000/svg">
<path d="M9.16832 50.4052V42.2698C9.16832 39.3571 8.44519 37.8423 7.02498 35.31C5.29366 32.2165 4.36847 28.6949 4.3433 25.1023C4.31813 21.5096 5.19386 17.9739 6.88165 14.8538C8.56944 11.7337 11.0092 9.14018 13.9535 7.33643C16.8978 5.53268 20.2417 4.58285 23.6462 4.58331C28.7647 4.58392 33.6736 6.72967 37.2933 10.5488C40.9131 14.3679 42.9475 19.5477 42.9492 24.9494C42.9492 26.2785 42.9492 26.9431 43.0014 27.3144C43.1273 28.2035 43.5225 28.9689 43.9069 29.7619L47.7745 37.6773L44.7343 39.2814C43.8548 39.7444 43.414 39.9758 43.1078 40.4044C42.8016 40.8329 42.7147 41.3187 42.5432 42.2835L42.5258 42.3798C42.1284 44.5981 41.6919 47.0456 40.4628 48.5902C40.0285 49.1333 39.4899 49.5756 38.8841 49.8896C37.883 50.4052 36.6517 50.4052 34.1891 50.4052C33.0491 50.4052 31.9068 50.4327 30.7667 50.4052C28.0675 50.3341 26.0588 47.9371 26.0588 45.1573" stroke="white" stroke-width="1.25" stroke-linecap="round" stroke-linejoin="round"/>
<path d="M31.2445 24.1358C30.3194 24.1358 29.4747 23.7646 28.8341 23.1573M31.2445 24.1358C31.2445 26.7621 29.8026 29.2554 27.0273 29.2554C24.2521 29.2554 22.8101 31.7487 22.8101 34.375M31.2445 24.1358C35.9134 24.1358 35.9134 16.4564 31.2445 16.4564C30.8189 16.458 30.4157 16.5305 30.0349 16.6742C30.263 10.9496 22.4431 9.39582 20.6711 14.7583M20.6711 14.7583C21.9632 15.6773 22.8101 17.2402 22.8101 19.0139M20.6711 14.7583C16.6494 11.8937 11.29 17.0339 13.8394 21.6173C9.56139 22.2933 10.0174 29.2554 14.3758 29.2554C14.9569 29.2552 15.5293 29.1066 16.0443 28.8225C16.5593 28.5384 17.0016 28.1272 17.3334 27.6237" stroke="white" stroke-width="1.25" stroke-linecap="round" stroke-linejoin="round"/>
</svg>
