<svg width="54" height="54" viewBox="0 0 54 54" fill="none" xmlns="http://www.w3.org/2000/svg">
<path d="M34.5776 24.5389C34.5776 23.5136 34.3756 22.4983 33.9832 21.551C33.5909 20.6037 33.0157 19.743 32.2907 19.0179C31.5657 18.2929 30.705 17.7178 29.7577 17.3254C28.8104 16.933 27.7951 16.7311 26.7697 16.7311C25.7444 16.7311 24.7291 16.933 23.7818 17.3254C22.8345 17.7178 21.9738 18.2929 21.2488 19.0179C20.5238 19.743 19.9486 20.6037 19.5562 21.551C19.1639 22.4983 18.9619 23.5136 18.9619 24.5389C18.9619 26.6097 19.7845 28.5956 21.2488 30.0599C22.713 31.5241 24.699 32.3467 26.7697 32.3467C28.8405 32.3467 30.8265 31.5241 32.2907 30.0599C33.755 28.5956 34.5776 26.6097 34.5776 24.5389Z" stroke="white" stroke-width="1.25" stroke-linecap="round" stroke-linejoin="round"/>
<path d="M34.5397 25.3197C35.2595 25.5413 36.0157 25.6528 36.8084 25.6543M36.8084 25.6543C38.3193 25.6541 39.7977 25.2155 41.0643 24.3917C42.3308 23.5679 43.3312 22.3943 43.944 21.0132C44.5568 19.6322 44.7557 18.103 44.5167 16.6111C44.2776 15.1193 43.6109 13.7288 42.5972 12.6084C41.5836 11.4879 40.2666 10.6857 38.8061 10.2988C37.3455 9.91203 35.8041 9.9573 34.3688 10.4292C32.9335 10.901 31.6659 11.7792 30.7197 12.9572C29.7736 14.1352 29.1896 15.5624 29.0385 17.0657M36.8084 25.6543C43.5856 25.6543 49.0779 30.6491 49.0779 36.8083M24.501 17.0657C24.3398 15.4649 23.6879 13.953 22.6346 12.7368C21.5814 11.5206 20.1781 10.6595 18.6168 10.2712C17.0555 9.88298 15.4123 9.98651 13.9121 10.5677C12.4118 11.1489 11.1277 12.1793 10.2355 13.5181C9.34319 14.8569 8.88627 16.4386 8.92721 18.047C8.96815 19.6554 9.50495 21.2118 10.4642 22.5034C11.4234 23.7951 12.7583 24.7589 14.2861 25.263C15.814 25.7671 17.4603 25.7869 18.9999 25.3197M39.0392 43.5008C39.0392 37.3415 33.547 32.3467 26.7698 32.3467C19.9926 32.3467 14.5003 37.3415 14.5003 43.5008" stroke="white" stroke-width="1.25" stroke-linecap="round" stroke-linejoin="round"/>
<path d="M16.7311 25.6543C9.95392 25.6543 4.46167 30.6491 4.46167 36.8083" stroke="white" stroke-width="1.25" stroke-linecap="round" stroke-linejoin="round"/>
</svg>
