<svg width="49" height="49" viewBox="0 0 49 49" fill="none" xmlns="http://www.w3.org/2000/svg">
<path d="M40.3545 8.64547C38.2762 6.54658 35.8036 4.87902 33.0789 3.73859C30.3541 2.59816 27.4309 2.00734 24.4771 2.00007C21.5234 1.9928 18.5973 2.56922 15.8669 3.69623C13.1366 4.82323 10.6559 6.4786 8.56724 8.56724C6.4786 10.6559 4.82323 13.1366 3.69623 15.8669C2.56922 18.5973 1.9928 21.5234 2.00007 24.4771C2.00734 27.4309 2.59816 30.3541 3.73859 33.0789C4.87902 35.8036 6.54658 38.2762 8.64547 40.3545C10.7238 42.4534 13.1964 44.121 15.9211 45.2614C18.6459 46.4018 21.5691 46.9927 24.5229 46.9999C27.4766 47.0072 30.4027 46.4308 33.1331 45.3038C35.8634 44.1768 38.3441 42.5214 40.4328 40.4328C42.5214 38.3441 44.1768 35.8634 45.3038 33.1331C46.4308 30.4027 47.0072 27.4766 46.9999 24.5229C46.9927 21.5691 46.4018 18.6459 45.2614 15.9211C44.121 13.1964 42.4534 10.7238 40.3545 8.64547ZM5.28118 24.5C5.28043 22.799 5.50596 21.1055 5.95184 19.4641C6.68656 21.0456 7.7536 22.412 8.47931 24.0345C9.41723 26.1206 11.9357 25.542 13.0478 27.3698C14.0348 28.9924 12.9807 31.0444 13.7194 32.7421C14.256 33.9743 15.5212 34.2435 16.3941 35.1444C17.2859 36.0533 17.2669 37.2985 17.4031 38.4837C17.5566 39.8762 17.8057 41.2565 18.1488 42.6147C18.1488 42.6247 18.1488 42.6358 18.1568 42.6458C10.6665 40.0152 5.28118 32.8752 5.28118 24.5ZM24.5 43.7188C23.4267 43.7185 22.3553 43.6288 21.2969 43.4506C21.3079 43.1793 21.3129 42.926 21.3399 42.7499C21.5831 41.1583 22.3799 39.6018 23.455 38.4106C24.517 37.2355 25.9724 36.4407 26.8693 35.1074C27.7482 33.8061 28.0114 32.0544 27.6491 30.5339C27.1156 28.2877 24.0636 27.538 22.418 26.3198C21.472 25.6191 20.6302 24.536 19.388 24.4479C18.8154 24.4079 18.336 24.531 17.7684 24.3849C17.2479 24.2498 16.8395 23.9695 16.285 24.0426C15.2489 24.1787 14.5953 25.2858 13.4822 25.1356C12.4262 24.9945 11.3381 23.7583 11.0979 22.7523C10.7896 21.459 11.8126 21.0396 12.9086 20.9245C13.3661 20.8765 13.8796 20.8244 14.319 20.9926C14.8976 21.2068 15.1709 21.7733 15.6904 22.0596C16.6643 22.5941 16.8615 21.7403 16.7124 20.8755C16.4892 19.5802 16.2289 19.0527 17.384 18.1608C18.1848 17.5462 18.8695 17.1018 18.7414 15.9977C18.6653 15.349 18.3099 15.0558 18.6413 14.4101C18.8925 13.9186 19.5822 13.4752 20.0316 13.1819C21.1918 12.4252 25.0015 12.4812 23.445 10.3632C22.9875 9.74155 22.1437 8.63046 21.3429 8.47831C20.3419 8.28913 19.8975 9.40622 19.1998 9.8987C18.4791 10.4082 17.0757 10.9868 16.354 10.199C15.3831 9.13896 16.9977 8.79162 17.355 8.05089C17.5202 7.70555 17.355 7.22609 17.0767 6.77464C17.4378 6.62249 17.8048 6.48136 18.1778 6.35123C18.4116 6.5239 18.6889 6.6279 18.9786 6.65152C19.6482 6.69557 20.2799 6.33321 20.8644 6.78966C21.5131 7.29015 21.9805 7.92277 22.8414 8.07892C23.6742 8.23007 24.5561 7.74459 24.7623 6.89176C24.8874 6.37325 24.7623 5.82571 24.6421 5.29019C28.3858 5.31173 32.0407 6.43289 35.1524 8.51435C34.9522 8.43827 34.713 8.44728 34.4177 8.58441C33.8101 8.86669 32.9493 9.5854 32.8782 10.2981C32.7971 11.1069 33.9903 11.221 34.5568 11.221C35.4077 11.221 36.2695 10.8406 35.9953 9.85766C35.8761 9.43124 35.714 8.98781 35.4527 8.71955C36.0808 9.15528 36.6824 9.62791 37.2545 10.1349C37.2455 10.1439 37.2365 10.1519 37.2275 10.162C36.6509 10.7625 35.9812 11.238 35.5869 11.9687C35.3086 12.4832 34.9953 12.7275 34.4317 12.8606C34.1214 12.9337 33.7671 12.9607 33.5068 13.1689C32.7821 13.7395 33.1945 15.1108 33.8812 15.5222C34.749 16.0417 36.0363 15.7975 36.6909 15.0558C37.2024 14.4752 37.5037 13.4672 38.4236 13.4682C38.8286 13.4674 39.2177 13.6259 39.5067 13.9096C39.8871 14.304 39.812 14.6724 39.8931 15.1649C40.0362 16.0397 40.808 15.5653 41.2774 15.1238C41.6196 15.7328 41.9284 16.36 42.2023 17.0027C41.6858 17.7464 41.2754 18.5572 40.0332 17.6903C39.2895 17.1708 38.832 16.4171 37.8981 16.1829C37.0823 15.9827 36.2465 16.1909 35.4407 16.33C34.5248 16.4892 33.4388 16.5592 32.7441 17.2529C32.0724 17.9216 31.7171 18.8164 31.0024 19.4881C29.62 20.7894 29.0364 22.2098 29.9313 24.0496C30.7922 25.8183 32.5929 26.7782 34.5358 26.6521C36.4447 26.525 38.4276 25.4179 38.3726 28.1916C38.3526 29.1736 38.5578 29.8532 38.8591 30.7651C39.1383 31.606 39.1193 32.4208 39.1834 33.2886C39.2443 34.3049 39.4032 35.3128 39.6578 36.2986C37.8637 38.6086 35.5653 40.478 32.9382 41.764C30.3112 43.0501 27.4249 43.7187 24.5 43.7188Z" fill="white"/>
</svg>
