<svg width="20" height="20" viewBox="0 0 20 20" fill="none" xmlns="http://www.w3.org/2000/svg">
<g clip-path="url(#clip0_32_140)">
<path d="M10 19.2857C15 19.2857 18.5714 17.5172 18.5714 13.58C18.5714 9.30144 16.4286 6.44858 12.1429 4.30858L13.8286 2.14001C13.9144 1.99776 13.961 1.8353 13.9637 1.66917C13.9663 1.50305 13.9249 1.33919 13.8436 1.19429C13.7623 1.0494 13.644 0.928642 13.5008 0.844324C13.3577 0.760006 13.1947 0.715139 13.0286 0.714294H6.97143C6.80564 0.716018 6.64323 0.761432 6.50059 0.845954C6.35794 0.930477 6.24011 1.05112 6.15898 1.19572C6.07784 1.34031 6.03627 1.50374 6.03846 1.66953C6.04064 1.83532 6.08651 1.9976 6.17143 2.14001L7.85714 4.32287C3.57143 6.47715 1.42857 9.33001 1.42857 13.6086C1.42857 17.5172 5 19.2857 10 19.2857Z" stroke="black" stroke-linecap="round" stroke-linejoin="round"/>
<path d="M11.9757 9.72288C11.8698 9.42041 11.6723 9.15843 11.4106 8.97334C11.149 8.78824 10.8362 8.68922 10.5157 8.69003H9.31857C8.97746 8.68935 8.64817 8.8149 8.3941 9.0425C8.14003 9.27009 7.97915 9.58364 7.94243 9.92276C7.90572 10.2619 7.99577 10.6026 8.19524 10.8793C8.39472 11.156 8.68951 11.3491 9.02285 11.4215L10.8471 11.8215C11.2189 11.9044 11.547 12.1213 11.7688 12.4309C11.9907 12.7405 12.0906 13.121 12.0496 13.4996C12.0086 13.8783 11.8295 14.2285 11.5465 14.4835C11.2636 14.7384 10.8966 14.8801 10.5157 14.8815H9.48571C8.81142 14.8815 8.23857 14.45 8.02571 13.85M10 8.69003V7.14288M10 16.4286V14.8815" stroke="black" stroke-linecap="round" stroke-linejoin="round"/>
</g>
<defs>
<clipPath id="clip0_32_140">
<rect width="20" height="20" fill="white"/>
</clipPath>
</defs>
</svg>
